<svg width="20" height="20" viewBox="0 0 20 20" fill="none" xmlns="http://www.w3.org/2000/svg">
<path d="M16.778 11.8431C17.0723 11.5516 17.0746 11.0768 16.7831 10.7825C16.4916 10.4882 16.0168 10.4859 15.7225 10.7773L16.778 11.8431ZM10.0002 17.5002L9.47248 18.0331C9.76477 18.3226 10.2357 18.3226 10.528 18.0331L10.0002 17.5002ZM4.27801 10.7773C3.98371 10.4859 3.50884 10.4882 3.21736 10.7825C2.92589 11.0768 2.92818 11.5516 3.22248 11.8431L4.27801 10.7773ZM3.22716 11.8474C3.52401 12.1362 3.99884 12.1298 4.28772 11.8329C4.57659 11.5361 4.57012 11.0612 4.27326 10.7723L3.22716 11.8474ZM10.0002 5.83819L9.39826 6.28558C9.53932 6.47538 9.76164 6.58753 9.99812 6.58819C10.2346 6.58885 10.4575 6.47794 10.5997 6.28893L10.0002 5.83819ZM15.7247 10.7798C15.4291 11.07 15.4249 11.5449 15.7151 11.8404C16.0054 12.1359 16.4802 12.1402 16.7758 11.8499L15.7247 10.7798ZM15.7225 10.7773L9.47248 16.9673L10.528 18.0331L16.778 11.8431L15.7225 10.7773ZM10.528 16.9673L4.27801 10.7773L3.22248 11.8431L9.47248 18.0331L10.528 16.9673ZM4.27326 10.7723C3.35164 9.87553 3.01164 8.53719 3.39345 7.30924L1.96109 6.86387C1.41166 8.63093 1.90093 10.5568 3.22716 11.8474L4.27326 10.7723ZM3.39345 7.30924C3.77526 6.08128 4.81422 5.17171 6.08188 4.95561L5.8298 3.47694C4.00561 3.78792 2.51053 5.09681 1.96109 6.86387L3.39345 7.30924ZM6.08188 4.95561C7.34953 4.73951 8.63117 5.25348 9.39826 6.28558L10.6022 5.39081C9.49829 3.90559 7.654 3.16597 5.8298 3.47694L6.08188 4.95561ZM10.5997 6.28893C11.37 5.26446 12.6489 4.75731 13.9119 4.97544L14.1672 3.49731C12.3496 3.18343 10.5092 3.91323 9.40076 5.38746L10.5997 6.28893ZM13.9119 4.97544C15.175 5.19356 16.2097 6.10026 16.5918 7.32373L18.0236 6.87657C17.4737 5.11596 15.9847 3.8112 14.1672 3.49731L13.9119 4.97544ZM16.5918 7.32373C16.9739 8.54721 16.6391 9.88163 15.7247 10.7798L16.7758 11.8499C18.0916 10.5574 18.5735 8.63718 18.0236 6.87657L16.5918 7.32373Z" fill="#1B1B1B"/>
</svg>
