<svg width="20" height="20" viewBox="0 0 20 20" fill="none" xmlns="http://www.w3.org/2000/svg">
<ellipse cx="7.50033" cy="5.83333" rx="3.33333" ry="3.33333" stroke="#1B1B1B" stroke-width="1.5" stroke-linecap="round" stroke-linejoin="round"/>
<path d="M2.5 17.5V15.8333C2.5 13.9924 3.99238 12.5 5.83333 12.5H9.16667C11.0076 12.5 12.5 13.9924 12.5 15.8333V17.5" stroke="#1B1B1B" stroke-width="1.5" stroke-linecap="round" stroke-linejoin="round"/>
<path d="M13.333 8.41649C12.9188 8.41649 12.583 8.75228 12.583 9.16649C12.583 9.58071 12.9188 9.91649 13.333 9.91649V8.41649ZM18.333 9.91649C18.7472 9.91649 19.083 9.58071 19.083 9.16649C19.083 8.75228 18.7472 8.41649 18.333 8.41649V9.91649ZM16.5828 6.66667C16.5828 6.25245 16.247 5.91667 15.8328 5.91667C15.4186 5.91667 15.0828 6.25245 15.0828 6.66667H16.5828ZM15.0828 11.6667C15.0828 12.0809 15.4186 12.4167 15.8328 12.4167C16.247 12.4167 16.5828 12.0809 16.5828 11.6667H15.0828ZM13.333 9.91649H18.333V8.41649H13.333V9.91649ZM15.0828 6.66667V11.6667H16.5828V6.66667H15.0828Z" fill="#1B1B1B"/>
</svg>
